<svg width="20" height="23" viewBox="0 0 20 23" fill="none" xmlns="http://www.w3.org/2000/svg">
<path fill-rule="evenodd" clip-rule="evenodd" d="M4.83235 5.75V5.175C4.83235 3.8025 5.3907 2.48622 6.38456 1.51572C7.37843 0.545222 8.7264 0 10.1319 0C11.5375 0 12.8854 0.545222 13.8793 1.51572C14.8732 2.48622 15.4315 3.8025 15.4315 5.175V5.75H18.3757C19.0258 5.75 19.5534 6.26635 19.5534 6.90805V20.7092C19.5534 21.9742 18.4994 23 17.2051 23H3.05875C2.43635 23 1.83941 22.7587 1.39908 22.3292C0.958759 21.8996 0.711073 21.317 0.710449 20.7092V6.9092C0.710449 6.2675 1.23452 5.75 1.88814 5.75H4.83235ZM6.59888 5.75H13.665V5.175C13.665 4.26 13.2928 3.38248 12.6302 2.73548C11.9676 2.08848 11.069 1.725 10.1319 1.725C9.19491 1.725 8.29626 2.08848 7.63369 2.73548C6.97111 3.38248 6.59888 4.26 6.59888 5.175V5.75ZM4.83235 5.75V10.35H6.59888V5.75H4.83235ZM13.665 5.75V10.35H15.4315V5.75H13.665Z" fill="#AF2500"/>
</svg>
