<svg width="26" height="26" viewBox="0 0 26 26" fill="none" xmlns="http://www.w3.org/2000/svg">
<path d="M6.80831 24.4256L19.7447 24.5042C21.8187 24.5042 23.4519 22.7484 23.2964 20.652L22.3631 8.28301C22.2594 7.07757 21.2743 6.13417 20.0558 6.13417L6.36763 6.18658C5.25286 6.18658 4.31956 7.05136 4.24172 8.17819L3.33444 20.6258C3.17888 22.6698 4.78615 24.4256 6.80831 24.4518V24.4256Z" fill="black" stroke="white" stroke-width="0.852273" stroke-miterlimit="10" stroke-linecap="round"/>
<path d="M16.8926 10.3008V5.08596C16.8926 3.30398 15.4667 1.86269 13.7038 1.86269C11.941 1.86269 10.5151 3.30398 10.5151 5.08596V10.3008" fill="black"/>
<path d="M16.8926 10.3008V5.08596C16.8926 3.30398 15.4667 1.86269 13.7038 1.86269C11.941 1.86269 10.5151 3.30398 10.5151 5.08596V10.3008" stroke="white" stroke-width="0.852273" stroke-miterlimit="10" stroke-linecap="round"/>
</svg>
