<svg width="20" height="18" viewBox="0 0 20 18" fill="none" xmlns="http://www.w3.org/2000/svg">
<path d="M17.8682 0.31665H1.90888C1.52409 0.31665 1.15506 0.469507 0.882977 0.741594C0.61089 1.01368 0.458033 1.38271 0.458033 1.7675V16.276C0.456394 16.5525 0.534571 16.8237 0.683187 17.0569C0.831803 17.2901 1.04455 17.4755 1.2959 17.5908C1.48797 17.68 1.69712 17.7264 1.90888 17.7268C2.24947 17.726 2.57876 17.6046 2.83833 17.3841C2.84266 17.3813 2.84662 17.3779 2.85012 17.3741L5.7627 14.8251H17.8682C18.253 14.8251 18.622 14.6723 18.8941 14.4002C19.1662 14.1281 19.3191 13.7591 19.3191 13.3743V1.7675C19.3191 1.38271 19.1662 1.01368 18.8941 0.741594C18.622 0.469507 18.253 0.31665 17.8682 0.31665ZM17.8682 13.3743H5.7627C5.42105 13.3741 5.09029 13.4946 4.82872 13.7143L4.81783 13.7243L1.90888 16.276V1.7675H17.8682V13.3743ZM8.80042 7.5709C8.80042 7.35568 8.86423 7.1453 8.9838 6.96636C9.10337 6.78742 9.27331 6.64795 9.47214 6.56559C9.67097 6.48323 9.88976 6.46168 10.1008 6.50367C10.3119 6.54565 10.5058 6.64929 10.658 6.80147C10.8102 6.95365 10.9138 7.14753 10.9558 7.35861C10.9978 7.56969 10.9762 7.78848 10.8939 7.98731C10.8115 8.18614 10.672 8.35608 10.4931 8.47565C10.3141 8.59521 10.1038 8.65903 9.88855 8.65903C9.59996 8.65903 9.32319 8.54439 9.11912 8.34032C8.91506 8.13626 8.80042 7.85949 8.80042 7.5709ZM4.81058 7.5709C4.81058 7.35568 4.8744 7.1453 4.99396 6.96636C5.11353 6.78742 5.28347 6.64795 5.48231 6.56559C5.68114 6.48323 5.89992 6.46168 6.111 6.50367C6.32208 6.54565 6.51597 6.64929 6.66815 6.80147C6.82033 6.95365 6.92396 7.14753 6.96595 7.35861C7.00793 7.56969 6.98638 7.78848 6.90402 7.98731C6.82167 8.18614 6.6822 8.35608 6.50325 8.47565C6.32431 8.59521 6.11393 8.65903 5.89872 8.65903C5.61013 8.65903 5.33335 8.54439 5.12929 8.34032C4.92522 8.13626 4.81058 7.85949 4.81058 7.5709ZM12.7902 7.5709C12.7902 7.35568 12.8541 7.1453 12.9736 6.96636C13.0932 6.78742 13.2631 6.64795 13.462 6.56559C13.6608 6.48323 13.8796 6.46168 14.0907 6.50367C14.3017 6.54565 14.4956 6.64929 14.6478 6.80147C14.8 6.95365 14.9036 7.14753 14.9456 7.35861C14.9876 7.56969 14.9661 7.78848 14.8837 7.98731C14.8013 8.18614 14.6619 8.35608 14.4829 8.47565C14.304 8.59521 14.0936 8.65903 13.8784 8.65903C13.5898 8.65903 13.313 8.54439 13.109 8.34032C12.9049 8.13626 12.7902 7.85949 12.7902 7.5709Z" fill="#81859C"/>
</svg>
