<svg width="22" height="19" viewBox="0 0 22 19" fill="none" xmlns="http://www.w3.org/2000/svg">
<g opacity="0.4">
<path d="M6.90926 11.55H16.5423V10.125H6.90926V11.55ZM6.90926 9.4125H16.5423V7.9875H6.90926V9.4125ZM6.90926 7.275H16.5423V5.85H6.90926V7.275ZM19.7533 17.25L16.5423 14.4H5.30375C4.86224 14.4 4.48441 14.2606 4.17026 13.9818C3.85612 13.7029 3.69878 13.3673 3.69824 12.975V4.425C3.69824 4.03312 3.85558 3.69778 4.17026 3.41895C4.48494 3.14013 4.86277 3.00047 5.30375 3H18.1478C18.5894 3 18.9675 3.13965 19.2821 3.41895C19.5968 3.69825 19.7539 4.0336 19.7533 4.425V17.25ZM5.30375 12.975H17.2247L18.1478 13.7766V4.425H5.30375V12.975Z" fill="black"/>
</g>
</svg>
