<svg width="17" height="15" viewBox="0 0 17 15" fill="none" xmlns="http://www.w3.org/2000/svg">
<path d="M1.90499 14.625C1.41442 14.625 0.994611 14.4701 0.645561 14.1603C0.296511 13.8505 0.121688 13.4776 0.121094 13.0417V1.95833C0.121094 1.52292 0.295916 1.15031 0.645561 0.8405C0.995205 0.530694 1.41502 0.375528 1.90499 0.375H14.3923C14.8829 0.375 15.303 0.530167 15.6526 0.8405C16.0023 1.15083 16.1768 1.52344 16.1762 1.95833V13.0417C16.1762 13.4771 16.0017 13.85 15.6526 14.1603C15.3036 14.4706 14.8835 14.6255 14.3923 14.625H1.90499ZM1.90499 13.0417H14.3923V1.95833H1.90499V13.0417ZM2.79695 11.4583H13.5003L10.1555 7.5L7.47968 10.6667L5.4728 8.29167L2.79695 11.4583Z" fill="black"/>
</svg>
