<svg width="44" height="44" viewBox="0 0 44 44" fill="none" xmlns="http://www.w3.org/2000/svg">
<path d="M40 13L32 17M32 17L31 17.5L22 22M32 17V24M32 17L13 7M22 22L4 13M22 22V41M29.156 4.764L33.156 6.864C37.458 9.122 39.61 10.25 40.806 12.28C42 14.308 42 16.834 42 21.884V22.118C42 27.166 42 29.692 40.806 31.72C39.61 33.75 37.458 34.88 33.156 37.138L29.156 39.236C25.644 41.078 23.888 42 22 42C20.112 42 18.356 41.08 14.844 39.236L10.844 37.136C6.542 34.878 4.39 33.75 3.194 31.72C2 29.692 2 27.166 2 22.12V21.886C2 16.836 2 14.31 3.194 12.282C4.39 10.252 6.542 9.122 10.844 6.866L14.844 4.766C18.356 2.922 20.112 2 22 2C23.888 2 25.644 2.92 29.156 4.764Z" stroke="black" stroke-width="3" stroke-linecap="round"/>
</svg>
