<svg width="26" height="24" viewBox="0 0 26 24" fill="none" xmlns="http://www.w3.org/2000/svg">
<path d="M11.117 21.3034C11.117 21.6477 11.0149 21.9843 10.8236 22.2706C10.6323 22.5569 10.3604 22.7801 10.0423 22.9119C9.72412 23.0436 9.37406 23.0781 9.03634 23.0109C8.69861 22.9437 8.38839 22.7779 8.14491 22.5344C7.90142 22.291 7.73561 21.9807 7.66843 21.643C7.60125 21.3053 7.63573 20.9552 7.7675 20.6371C7.89928 20.319 8.12243 20.0471 8.40874 19.8558C8.69504 19.6645 9.03165 19.5623 9.37599 19.5623C9.83774 19.5623 10.2806 19.7458 10.6071 20.0723C10.9336 20.3988 11.117 20.8416 11.117 21.3034ZM20.6926 19.5623C20.3483 19.5623 20.0117 19.6645 19.7254 19.8558C19.439 20.0471 19.2159 20.319 19.0841 20.6371C18.9524 20.9552 18.9179 21.3053 18.9851 21.643C19.0522 21.9807 19.218 22.291 19.4615 22.5344C19.705 22.7779 20.0152 22.9437 20.353 23.0109C20.6907 23.0781 21.0407 23.0436 21.3589 22.9119C21.677 22.7801 21.9489 22.5569 22.1402 22.2706C22.3315 21.9843 22.4336 21.6477 22.4336 21.3034C22.4336 20.8416 22.2502 20.3988 21.9237 20.0723C21.5972 19.7458 21.1544 19.5623 20.6926 19.5623ZM25.8776 5.8899L22.7731 15.978C22.6105 16.5128 22.2799 16.9809 21.8302 17.313C21.3806 17.645 20.8359 17.8233 20.2769 17.8213H9.81886C9.25192 17.8192 8.70091 17.6335 8.24837 17.2919C7.79582 16.9504 7.46608 16.4715 7.30853 15.9269L3.37165 2.15215H1.54141C1.31053 2.15215 1.08912 2.06044 0.925865 1.89719C0.762613 1.73393 0.670898 1.51252 0.670898 1.28164C0.670898 1.05077 0.762613 0.829351 0.925865 0.666099C1.08912 0.502847 1.31053 0.411133 1.54141 0.411133H3.37165C3.74968 0.412387 4.11714 0.536038 4.41902 0.763578C4.72091 0.991118 4.94098 1.31031 5.0463 1.67337L5.92878 4.76368H25.0452C25.1814 4.76363 25.3157 4.79555 25.4374 4.85688C25.559 4.9182 25.6646 5.00722 25.7455 5.11677C25.8265 5.22632 25.8806 5.35334 25.9036 5.48762C25.9265 5.6219 25.9176 5.75969 25.8776 5.8899ZM23.8667 6.5047H6.42605L8.98209 15.4492C9.03409 15.631 9.14388 15.7909 9.29485 15.9048C9.44582 16.0187 9.62977 16.0803 9.81886 16.0803H20.2769C20.4632 16.0804 20.6446 16.0207 20.7944 15.91C20.9443 15.7994 21.0547 15.6436 21.1094 15.4655L23.8667 6.5047Z" fill="white"/>
</svg>
