<svg width="16" height="14" viewBox="0 0 16 14" fill="none" xmlns="http://www.w3.org/2000/svg">
<path d="M0.125 11.2188C0.125 11.7409 0.332421 12.2417 0.701634 12.6109C1.07085 12.9801 1.57161 13.1875 2.09375 13.1875H13.9062C14.4284 13.1875 14.9292 12.9801 15.2984 12.6109C15.6676 12.2417 15.875 11.7409 15.875 11.2188V5.80469H0.125V11.2188ZM2.44531 8.54688C2.44531 8.26715 2.55643 7.99889 2.75422 7.8011C2.95202 7.60331 3.22028 7.49219 3.5 7.49219H5.1875C5.46722 7.49219 5.73548 7.60331 5.93328 7.8011C6.13107 7.99889 6.24219 8.26715 6.24219 8.54688V9.25C6.24219 9.52972 6.13107 9.79798 5.93328 9.99578C5.73548 10.1936 5.46722 10.3047 5.1875 10.3047H3.5C3.22028 10.3047 2.95202 10.1936 2.75422 9.99578C2.55643 9.79798 2.44531 9.52972 2.44531 9.25V8.54688ZM13.9062 0.8125H2.09375C1.57161 0.8125 1.07085 1.01992 0.701634 1.38913C0.332421 1.75835 0.125 2.25911 0.125 2.78125V3.69531H15.875V2.78125C15.875 2.25911 15.6676 1.75835 15.2984 1.38913C14.9292 1.01992 14.4284 0.8125 13.9062 0.8125Z" fill="black"/>
</svg>
