<?xml version="1.0" encoding="utf-8"?>
<!-- Generator: Adobe Illustrator 25.2.1, SVG Export Plug-In . SVG Version: 6.00 Build 0)  -->
<svg version="1.1" id="Camada_1" xmlns="http://www.w3.org/2000/svg" xmlns:xlink="http://www.w3.org/1999/xlink" x="0px" y="0px"
	 viewBox="0 0 512 512" style="enable-background:new 0 0 512 512;" xml:space="preserve">
<style type="text/css">
	.st0{fill:#FFFFFF;}
</style>
<path class="st0" d="M236.8,201.1c5.8,4.7,11.6-1.5,16.4-6.1c10.5-10.1,19.7-20.3,27.6-30.7c4.7-6.2,1.2-11.3-3.7-15.9
	c-32.7-30.2-71.1-46.2-115.4-47.9c-34.7-1.3-69.8,6.2-99.6,23.9C50.9,131,43,136.1,38.4,139.5c-3.5,2.6-6,4.3-7.5,5.3
	c-1.4,0.8-1.8,0.5-1.2-1c1.4-3.8,3.3-7.5,5.7-11.2c6.3-10,13.8-22.3,21.5-31.9c12.7-15.8,25.7-29,38.9-39.5
	C133.8,31.1,176.3,13,223.5,6.9c12.2-1.6,24-2.2,35.4-1.9c103,2.9,194.7,67.2,230.3,164.6c19,51.9,20.4,104.8,4.5,158.6
	c-25.2,84.7-91.9,147.9-177.4,170.5c-30.3,8-61,10.1-92,6.3c-32.3-4-64.8-13.8-94.1-29.9c-1.1-0.6-1.8-1.2-2.1-1.7
	c-0.7-1.2-0.5-1.7,0.6-1.5c20.5,3,40.8,2.8,61.1-0.7c18.7-3.2,37-10.7,52.9-20c27.7-16.1,48.1-39.1,61.1-68.9
	c8.8-20.2,14.9-41.3,15.7-65.9c0.6-17.5,0.5-32.2-0.1-44c-0.3-5.1-3.3-7.6-9.1-7.7c-6.6,0-11.1,0-13.3,0
	c-23.8,0.2-64.2,0.2-121.2-0.1c-5.7,0-11.3,0.1-17,0.5c-3.5,0.2-6.1,1.8-7.9,4.7c-1.1,1.8-1.7,6-1.6,12.4
	c0.1,18.4,0.2,28.1,0.2,29.3c0.1,14.7,8.6,13.9,21.9,14c9.6,0.1,29.9,0.1,60.8,0.1c11.2,0,17.7,1.4,15.7,14.6
	c-4.2,27.9-29,50.1-55.2,58.6c-14.2,4.6-29.3,6.5-45.2,5.7c-47.1-2.3-84.7-32.2-100.4-76.1c-4.1-11.4-6.3-24.9-6.7-40.4
	c-0.8-33.3,10.9-62.9,34.3-86.7c12.9-13.2,28.3-21.3,44.7-27c8.9-3.1,19.5-4.8,31.7-5.1c17.4-0.4,32.9,1.9,48.9,9.2
	C213.4,184.7,225.7,192.2,236.8,201.1z"/>
<g>
</g>
<g>
</g>
<g>
</g>
<g>
</g>
<g>
</g>
<g>
</g>
</svg>
