<svg width="26" height="26" viewBox="0 0 26 26" fill="none" xmlns="http://www.w3.org/2000/svg">
<path d="M6.49967 14.0835H2.16634C1.51634 14.0835 1.08301 14.5168 1.08301 15.1668V23.8335C1.08301 24.4835 1.51634 24.9168 2.16634 24.9168H6.49967C7.14967 24.9168 7.58301 24.4835 7.58301 23.8335V15.1668C7.58301 14.5168 7.14967 14.0835 6.49967 14.0835ZM23.833 9.75016H19.4997C18.8497 9.75016 18.4163 10.1835 18.4163 10.8335V23.8335C18.4163 24.4835 18.8497 24.9168 19.4997 24.9168H23.833C24.483 24.9168 24.9163 24.4835 24.9163 23.8335V10.8335C24.9163 10.1835 24.483 9.75016 23.833 9.75016ZM15.1663 1.0835H10.833C10.183 1.0835 9.74967 1.51683 9.74967 2.16683V23.8335C9.74967 24.4835 10.183 24.9168 10.833 24.9168H15.1663C15.8163 24.9168 16.2497 24.4835 16.2497 23.8335V2.16683C16.2497 1.51683 15.8163 1.0835 15.1663 1.0835Z" fill="#AF2500"/>
</svg>
