<svg width="25" height="24" viewBox="0 0 25 24" fill="none" xmlns="http://www.w3.org/2000/svg">
<g clip-path="url(#clip0_82_2992)">
<path d="M7.66895 14L9.943 11.707C10.129 11.5195 10.3812 11.4142 10.6442 11.4142C10.9071 11.4142 11.1593 11.5195 11.3453 11.707L12.9182 13.293C13.1042 13.4805 13.3564 13.5858 13.6194 13.5858C13.8823 13.5858 14.1345 13.4805 14.3205 13.293L17.5863 10M17.5863 10V12.5M17.5863 10H15.107" stroke="#AF2500" stroke-width="2" stroke-linecap="round" stroke-linejoin="round"/>
<path d="M22.5452 12C22.5452 16.714 22.5452 19.071 21.0923 20.535C19.6414 22 17.3028 22 12.6278 22C7.95276 22 5.61524 22 4.16235 20.535C2.71045 19.072 2.71045 16.714 2.71045 12C2.71045 7.286 2.71045 4.929 4.16235 3.464C5.61623 2 7.95276 2 12.6278 2C17.3028 2 19.6404 2 21.0923 3.464C22.0582 4.438 22.3815 5.807 22.4906 8" stroke="#AF2500" stroke-width="3" stroke-linecap="round"/>
</g>
<defs>
<clipPath id="clip0_82_2992">
<rect width="23.8017" height="24" fill="white" transform="translate(0.727051)"/>
</clipPath>
</defs>
</svg>
