<svg width="25" height="22" viewBox="0 0 25 22" fill="none" xmlns="http://www.w3.org/2000/svg">
<path d="M17.6469 0.767334C15.3999 0.767334 13.4325 1.7336 12.2062 3.36689C10.9798 1.7336 9.0125 0.767334 6.76549 0.767334C4.97684 0.76935 3.26203 1.48078 1.99726 2.74555C0.732491 4.01032 0.021059 5.72513 0.019043 7.51378C0.019043 15.1307 11.3128 21.2961 11.7938 21.5507C11.9205 21.6189 12.0622 21.6546 12.2062 21.6546C12.3501 21.6546 12.4918 21.6189 12.6186 21.5507C13.0995 21.2961 24.3933 15.1307 24.3933 7.51378C24.3913 5.72513 23.6799 4.01032 22.4151 2.74555C21.1503 1.48078 19.4355 0.76935 17.6469 0.767334ZM12.2062 19.788C10.2192 18.6302 1.76006 13.356 1.76006 7.51378C1.76179 6.18679 2.2897 4.91464 3.22803 3.97632C4.16635 3.03799 5.4385 2.51008 6.76549 2.50835C8.88192 2.50835 10.6588 3.63566 11.401 5.44632C11.4665 5.60598 11.5781 5.74254 11.7215 5.83865C11.8649 5.93475 12.0336 5.98607 12.2062 5.98607C12.3788 5.98607 12.5475 5.93475 12.6909 5.83865C12.8342 5.74254 12.9458 5.60598 13.0114 5.44632C13.7535 3.6324 15.5304 2.50835 17.6469 2.50835C18.9739 2.51008 20.246 3.03799 21.1843 3.97632C22.1227 4.91464 22.6506 6.18679 22.6523 7.51378C22.6523 13.3473 14.1909 18.6291 12.2062 19.788Z" fill="white"/>
</svg>
