<svg width="26" height="24" viewBox="0 0 26 24" fill="none" xmlns="http://www.w3.org/2000/svg">
<path d="M11.3885 23.25V20.75H21.3058V11.875C21.3058 9.4375 20.4641 7.37 18.7806 5.6725C17.0971 3.975 15.0463 3.12583 12.6281 3.125C10.21 3.12417 8.15954 3.97333 6.4769 5.6725C4.79426 7.37167 3.95211 9.43917 3.95045 11.875V19.5H2.71078C2.02897 19.5 1.44549 19.2554 0.960371 18.7663C0.475247 18.2771 0.232272 17.6883 0.231445 17V14.5C0.231445 14.0625 0.340123 13.6512 0.557478 13.2662C0.774834 12.8812 1.07938 12.5737 1.47111 12.3438L1.56409 10.6875C1.72938 9.27083 2.13764 7.95833 2.78888 6.75C3.44012 5.54167 4.25624 4.48958 5.23723 3.59375C6.21822 2.69792 7.34384 2 8.61409 1.5C9.88434 1 11.2224 0.75 12.6281 0.75C14.0339 0.75 15.3666 1 16.6261 1.5C17.8856 2 19.0116 2.69292 20.0042 3.57875C20.9967 4.46458 21.8128 5.51125 22.4525 6.71875C23.0922 7.92625 23.5054 9.23875 23.6922 10.6562L23.7852 12.2812C24.1777 12.4688 24.4827 12.75 24.7 13.125C24.9174 13.5 25.0257 13.8958 25.0248 14.3125V17.1875C25.0248 17.6042 24.9166 18 24.7 18.375C24.4835 18.75 24.1786 19.0312 23.7852 19.2188V20.75C23.7852 21.4375 23.5426 22.0263 23.0575 22.5163C22.5724 23.0063 21.9885 23.2508 21.3058 23.25H11.3885ZM8.90913 14.5C8.55789 14.5 8.26368 14.38 8.02649 14.14C7.7893 13.9 7.67029 13.6033 7.66946 13.25C7.66863 12.8967 7.78764 12.6 8.02649 12.36C8.26533 12.12 8.55954 12 8.90913 12C9.25872 12 9.55335 12.12 9.79302 12.36C10.0327 12.6 10.1513 12.8967 10.1488 13.25C10.1463 13.6033 10.0273 13.9004 9.79177 14.1413C9.55624 14.3821 9.26202 14.5017 8.90913 14.5ZM16.3471 14.5C15.9959 14.5 15.7017 14.38 15.4645 14.14C15.2273 13.9 15.1083 13.6033 15.1075 13.25C15.1067 12.8967 15.2257 12.6 15.4645 12.36C15.7033 12.12 15.9976 12 16.3471 12C16.6967 12 16.9914 12.12 17.231 12.36C17.4707 12.6 17.5893 12.8967 17.5868 13.25C17.5843 13.6033 17.4653 13.9004 17.2298 14.1413C16.9943 14.3821 16.7 14.5017 16.3471 14.5ZM5.22111 12.5625C5.07649 10.3542 5.73764 8.45833 7.20459 6.875C8.67153 5.29167 10.5 4.5 12.6901 4.5C14.529 4.5 16.1459 5.08833 17.5409 6.265C18.936 7.44167 19.7777 8.9475 20.0662 10.7825C18.186 10.7608 16.4558 10.25 14.8757 9.25C13.2955 8.25 12.0814 6.89583 11.2335 5.1875C10.9029 6.85417 10.2058 8.33875 9.14219 9.64125C8.07855 10.9438 6.77153 11.9175 5.22111 12.5625Z" fill="#AF2500"/>
</svg>
