<svg width="14" height="15" viewBox="0 0 14 15" fill="none" xmlns="http://www.w3.org/2000/svg">
<path d="M10.7266 4.59375C10.5078 4.59375 10.3164 4.51172 10.1523 4.34766C9.98828 4.18359 9.90625 3.99219 9.90625 3.77344C9.90625 3.53906 9.98828 3.33984 10.1523 3.17578C10.3164 3.01172 10.5078 2.92969 10.7266 2.92969C10.9609 2.92969 11.1602 3.01172 11.3242 3.17578C11.4883 3.33984 11.5703 3.53906 11.5703 3.77344C11.5703 3.99219 11.4883 4.18359 11.3242 4.34766C11.1602 4.51172 10.9609 4.59375 10.7266 4.59375ZM7 5.15625C6.35938 5.15625 5.80859 5.38672 5.34766 5.84766C4.88672 6.30859 4.65625 6.85938 4.65625 7.5C4.65625 8.14062 4.88672 8.69141 5.34766 9.15234C5.80859 9.61328 6.35938 9.84375 7 9.84375C7.64062 9.84375 8.19141 9.61328 8.65234 9.15234C9.11328 8.69141 9.34375 8.14062 9.34375 7.5C9.34375 6.85938 9.11328 6.30859 8.65234 5.84766C8.19141 5.38672 7.64062 5.15625 7 5.15625ZM7 11.0859C6 11.0859 5.15234 10.7383 4.45703 10.043C3.76172 9.34766 3.41406 8.5 3.41406 7.5C3.41406 6.5 3.76172 5.65234 4.45703 4.95703C5.15234 4.26172 6 3.91406 7 3.91406C8 3.91406 8.84766 4.26172 9.54297 4.95703C10.2383 5.65234 10.5859 6.5 10.5859 7.5C10.5859 8.5 10.2383 9.34766 9.54297 10.043C8.84766 10.7383 8 11.0859 7 11.0859ZM2.875 2.03906C2.71875 2.10156 2.57422 2.17578 2.44141 2.26172C2.30859 2.34766 2.1875 2.45312 2.07812 2.57812C1.95312 2.6875 1.84766 2.80859 1.76172 2.94141C1.67578 3.07422 1.60156 3.21875 1.53906 3.375C1.35156 3.82812 1.25781 4.5 1.25781 5.39062C1.25781 6.28125 1.25781 6.98438 1.25781 7.5C1.25781 8.01562 1.25781 8.71875 1.25781 9.60938C1.25781 10.5 1.35156 11.1719 1.53906 11.625C1.60156 11.7812 1.67578 11.9219 1.76172 12.0469C1.84766 12.1719 1.95312 12.2969 2.07812 12.4219C2.1875 12.5469 2.30859 12.6523 2.44141 12.7383C2.57422 12.8242 2.71875 12.8984 2.875 12.9609C3.32812 13.1484 4 13.2422 4.89062 13.2422C5.78125 13.2422 6.48438 13.2422 7 13.2422C7.51562 13.2422 8.21875 13.2422 9.10938 13.2422C10 13.2422 10.6719 13.1484 11.125 12.9609C11.2812 12.8984 11.4219 12.8242 11.5469 12.7383C11.6719 12.6523 11.7969 12.5469 11.9219 12.4219C12.0469 12.2969 12.1523 12.1719 12.2383 12.0469C12.3242 11.9219 12.3984 11.7812 12.4609 11.625C12.6484 11.1719 12.7422 10.5 12.7422 9.60938C12.7422 8.71875 12.7422 8.01562 12.7422 7.5C12.7422 6.98438 12.7422 6.28125 12.7422 5.39062C12.7422 4.5 12.6484 3.82812 12.4609 3.375C12.3984 3.21875 12.3242 3.07422 12.2383 2.94141C12.1523 2.80859 12.0469 2.6875 11.9219 2.57812C11.7969 2.45312 11.6719 2.34766 11.5469 2.26172C11.4219 2.17578 11.2812 2.10156 11.125 2.03906C10.6719 1.85156 10 1.75781 9.10938 1.75781C8.21875 1.75781 7.51562 1.75781 7 1.75781C6.48438 1.75781 5.78125 1.75781 4.89062 1.75781C4 1.75781 3.32812 1.85156 2.875 2.03906ZM13.9609 10.3828C13.9297 10.9453 13.8359 11.4727 13.6797 11.9648C13.5234 12.457 13.2344 12.9062 12.8125 13.3125C12.4062 13.7344 11.957 14.0234 11.4648 14.1797C10.9727 14.3359 10.4453 14.4297 9.88281 14.4609C9.39844 14.4766 8.91797 14.4883 8.44141 14.4961C7.96484 14.5039 7.48438 14.5078 7 14.5078C6.51562 14.5078 6.03516 14.5039 5.55859 14.4961C5.08203 14.4883 4.60156 14.4766 4.11719 14.4609C3.55469 14.4297 3.02734 14.3359 2.53516 14.1797C2.04297 14.0234 1.59375 13.7344 1.1875 13.3125C0.765625 12.9062 0.476562 12.457 0.320312 11.9648C0.164062 11.4727 0.0703125 10.9453 0.0390625 10.3828C0.0234375 9.89844 0.0117188 9.41797 0.00390625 8.94141C-0.00390625 8.46484 -0.0078125 7.98438 -0.0078125 7.5C-0.0078125 7.01562 -0.00390625 6.53516 0.00390625 6.05859C0.0117188 5.58203 0.0234375 5.10156 0.0390625 4.61719C0.0703125 4.05469 0.164062 3.52734 0.320312 3.03516C0.476562 2.54297 0.765625 2.09375 1.1875 1.6875C1.59375 1.26562 2.04297 0.976562 2.53516 0.820312C3.02734 0.664062 3.55469 0.570312 4.11719 0.539062C4.60156 0.523438 5.08203 0.511719 5.55859 0.503906C6.03516 0.496094 6.51562 0.492188 7 0.492188C7.48438 0.492188 7.96484 0.496094 8.44141 0.503906C8.91797 0.511719 9.39844 0.523438 9.88281 0.539062C10.4453 0.570312 10.9727 0.664062 11.4648 0.820312C11.957 0.976562 12.4062 1.26562 12.8125 1.6875C13.2344 2.09375 13.5234 2.54297 13.6797 3.03516C13.8359 3.52734 13.9297 4.05469 13.9609 4.61719C13.9766 5.10156 13.9883 5.58203 13.9961 6.05859C14.0039 6.53516 14.0078 7.01562 14.0078 7.5C14.0078 7.98438 14.0039 8.46484 13.9961 8.94141C13.9883 9.41797 13.9766 9.89844 13.9609 10.3828Z" fill="black"/>
</svg>
