<svg width="22" height="22" viewBox="0 0 22 22" fill="none" xmlns="http://www.w3.org/2000/svg">
<path d="M3.4464 18.4996C2.51665 17.5621 1.78814 16.4788 1.26086 15.2496C0.73359 14.0205 0.470367 12.7496 0.471193 11.4371C0.47202 10.1246 0.719954 8.82795 1.21499 7.54712C1.71004 6.26629 2.51582 5.06295 3.63235 3.93712C4.35549 3.20795 5.24929 2.58295 6.31375 2.06212C7.37822 1.54128 8.63855 1.13003 10.0947 0.828368C11.5509 0.526702 13.2142 0.344202 15.0844 0.280869C16.9547 0.217535 19.0464 0.290452 21.3596 0.499618C21.5249 2.70795 21.5766 4.7392 21.5146 6.59337C21.4526 8.44753 21.2819 10.1196 21.0026 11.6096C20.7233 13.0996 20.3307 14.4013 19.8249 15.5146C19.3191 16.628 18.6943 17.5605 17.9505 18.3121C16.8555 19.4163 15.6935 20.2238 14.4646 20.7346C13.2357 21.2455 11.9803 21.5005 10.6985 21.4996C9.35549 21.4996 8.04351 21.2338 6.76251 20.7021C5.48152 20.1705 4.37615 19.4363 3.4464 18.4996ZM6.91747 17.9996C7.51665 18.3538 8.13152 18.6092 8.7621 18.7659C9.39268 18.9225 10.0381 19.0005 10.6985 18.9996C11.6489 18.9996 12.589 18.8071 13.5187 18.4221C14.4485 18.0371 15.3369 17.4171 16.184 16.5621C16.5559 16.1871 16.9332 15.6609 17.3158 14.9834C17.6985 14.3059 18.029 13.4209 18.3076 12.3284C18.5861 11.2359 18.7976 9.91295 18.9423 8.35962C19.0869 6.80628 19.1076 4.95712 19.0043 2.81212C17.9919 2.77045 16.8505 2.75504 15.5803 2.76587C14.31 2.7767 13.0443 2.87545 11.7832 3.06212C10.522 3.24879 9.32367 3.55087 8.18814 3.96837C7.0526 4.38587 6.12285 4.95879 5.39888 5.68712C4.46913 6.62462 3.82863 7.5517 3.47739 8.46837C3.12615 9.38503 2.95053 10.2705 2.95053 11.1246C2.95053 12.3538 3.18318 13.4321 3.64847 14.3596C4.11376 15.2871 4.52161 15.938 4.87202 16.3121C5.73979 14.6455 6.88648 13.0463 8.3121 11.5146C9.73772 9.98295 11.4009 8.72795 13.3018 7.74962C11.8142 9.06212 10.5179 10.5467 9.41293 12.2034C8.30797 13.86 7.47615 15.7921 6.91747 17.9996Z" fill="#AF2500"/>
</svg>
