<svg width="150" height="43" viewBox="0 0 150 43" fill="none" xmlns="http://www.w3.org/2000/svg">
<g clip-path="url(#clip0_82_2916)">
<path d="M17.4282 16.8638C17.9192 17.2611 18.4028 16.7334 18.8043 16.3422C19.6859 15.481 20.459 14.6066 21.1237 13.719C21.5192 13.1898 21.2266 12.7531 20.8117 12.3635C18.0645 9.7847 14.8312 8.42104 11.1118 8.27245C8.19691 8.1572 5.24619 8.80163 2.74023 10.3104C1.79695 10.8785 1.13328 11.3076 0.749202 11.5977C0.456668 11.8181 0.247714 11.9677 0.122343 12.0465C0.00592613 12.1183 -0.0274079 12.09 0.022343 11.9616C0.143735 11.6402 0.303933 11.3202 0.502937 11.0018C1.03427 10.1511 1.66412 9.09732 2.31337 8.28003C3.383 6.9295 4.47356 5.80642 5.58498 4.9108C8.76805 2.34319 12.3446 0.799076 16.3147 0.278479C17.3436 0.143022 18.3366 0.0894464 19.2938 0.117751C27.9505 0.364909 35.6667 5.85696 38.6579 14.1754C40.2519 18.6101 40.3767 23.1237 39.0326 27.7161C36.913 34.9519 31.3026 40.3453 24.1191 42.2711C21.5689 42.9544 18.9908 43.134 16.3849 42.8093C13.6685 42.4696 10.9357 41.6297 8.47154 40.253C8.37998 40.2012 8.32079 40.1542 8.29391 40.1119C8.23123 40.0117 8.24865 39.9692 8.34616 39.9846C10.0665 40.2442 11.7795 40.2256 13.4849 39.9283C15.061 39.654 16.5923 39.014 17.9326 38.2225C20.263 36.8468 21.9754 34.8862 23.0699 32.3407C23.8086 30.6198 24.3237 28.8185 24.3893 26.7153C24.437 25.2202 24.4347 23.9678 24.3819 22.9579C24.3588 22.5232 24.1051 22.3054 23.6207 22.3043C23.0624 22.3023 22.6898 22.3023 22.5027 22.3043C20.5018 22.3246 17.1063 22.3231 12.3163 22.2998C11.8407 22.2978 11.365 22.3114 10.8894 22.3408C10.5959 22.3579 10.3735 22.4914 10.2223 22.7411C10.1277 22.8967 10.082 23.25 10.085 23.801C10.0959 25.3688 10.1014 26.2038 10.1014 26.3058C10.1058 27.5599 10.8267 27.49 11.9431 27.5023C12.7531 27.5113 14.457 27.5139 17.055 27.5098C17.9998 27.5084 18.5431 27.6251 18.3744 28.7578C18.0222 31.1384 15.9371 33.0337 13.7297 33.76C12.5347 34.1522 11.2685 34.3154 9.93121 34.2497C5.97305 34.0541 2.81186 31.5039 1.48651 27.7508C1.14223 26.7755 0.954177 25.6256 0.922337 24.3014C0.855172 21.4613 1.83875 18.9321 3.8074 16.8972C4.89544 15.7721 6.18647 15.0822 7.56407 14.5894C8.31133 14.3225 9.19988 14.1775 10.2297 14.1542C11.6939 14.1209 12.9954 14.318 14.3386 14.9412C15.465 15.4648 16.4948 16.1057 17.4282 16.8638Z" fill="white"/>
<path d="M57.1106 25.0215C57.1085 24.8356 57.0164 24.7446 56.8344 24.7486C55.5439 24.7779 54.2688 24.7713 53.009 24.729C52.632 24.7167 52.4106 24.5681 52.3448 24.2832C52.2644 23.9389 52.2732 23.1353 52.4374 22.7456C52.6032 22.3514 53.1837 22.3377 53.6225 22.3226C55.1937 22.27 56.9592 22.277 58.9195 22.3438C59.7344 22.3726 59.9151 22.6986 59.9823 23.4977C60.1981 26.0228 59.4285 28.1508 57.6732 29.8812C55.5434 31.983 52.2137 32.3757 49.5032 31.3976C46.8748 30.4485 44.933 28.3741 44.1046 25.6341C43.2509 22.8123 43.8613 19.669 45.8271 17.3976C47.433 15.5406 49.4185 14.5232 51.7837 14.3452C52.4941 14.2927 53.1927 14.3392 53.8792 14.4848C55.409 14.8077 56.9016 15.4051 57.9434 16.603C58.032 16.7051 58.0967 16.8578 58.1374 17.061C58.142 17.0845 58.1423 17.1089 58.1376 17.1326C58.133 17.1562 58.1239 17.1788 58.1106 17.1989C57.6569 17.8762 57.1906 18.3584 56.712 18.6455C56.5888 18.7193 56.439 18.7031 56.2627 18.597C55.6718 18.2422 55.2648 18.0092 55.0418 17.898C53.1658 16.9654 50.7062 17.0943 49.0167 18.2785C47.242 19.5234 46.4137 21.9586 46.7762 24.0951C47.0211 25.5401 47.8553 27.2717 49.1181 28.0573C50.6046 28.9801 52.1697 29.2471 53.8137 28.8577C55.5569 28.4454 57.1239 26.8866 57.1106 25.0215Z" fill="white"/>
<path d="M81.4764 22.227C81.4766 22.1995 81.4717 22.1721 81.4615 22.1466C81.4515 22.121 81.4364 22.0978 81.4175 22.0782C81.3985 22.0585 81.3757 22.043 81.3508 22.0323C81.3257 22.0217 81.2989 22.0162 81.2717 22.0162H78.418C78.3503 22.0163 78.285 21.9909 78.2347 21.945C78.1843 21.8991 78.1524 21.8359 78.145 21.7676C78.1122 21.4693 78.1131 21.0817 78.148 20.6046C78.1838 20.1082 78.425 19.8292 78.8717 19.7676C79.6013 19.6665 80.3678 19.6377 81.1717 19.6811C81.2103 19.6831 81.2489 19.6768 81.285 19.6626C81.321 19.6484 81.3538 19.6267 81.381 19.5988C81.4082 19.5708 81.4292 19.5374 81.4429 19.5007C81.4564 19.4639 81.4622 19.4247 81.4599 19.3855C81.4101 18.5515 81.4336 17.7498 81.5301 16.9806C81.5787 16.5924 81.7559 16.3412 82.0613 16.227C82.4285 16.089 83.2494 16.089 83.7061 16.1679C84.1554 16.2437 84.2761 16.8229 84.3017 17.2823C84.3334 17.8646 84.3389 18.5677 84.318 19.3915C84.3171 19.4253 84.3227 19.4589 84.3347 19.4904C84.3466 19.5219 84.3647 19.5507 84.3878 19.5749C84.411 19.5993 84.4385 19.6186 84.4692 19.6319C84.4996 19.6452 84.5327 19.6521 84.5659 19.6523C85.7778 19.6604 86.9896 19.6857 88.2015 19.7281C88.612 19.7418 89.0345 19.7205 89.1687 20.1375C89.2385 20.3569 89.2703 20.5742 89.2643 20.7895C89.2447 21.4764 89.2673 21.9768 88.4015 21.9935C87.1359 22.0167 85.8478 22.0294 84.5375 22.0314C84.4848 22.0314 84.4343 22.0525 84.3966 22.0902C84.3589 22.1279 84.3371 22.1792 84.3359 22.2331C84.2982 24.5419 84.301 26.1643 84.345 27.1004C84.3948 28.1648 84.8913 28.8407 85.8345 29.1278C87.015 29.4871 87.8166 29.193 88.9822 28.7486C89.3001 28.6274 89.9106 29.2249 90.1464 29.4583C90.4199 29.7293 90.4175 30.0005 90.1389 30.2725C89.1517 31.2359 87.9622 31.7413 86.5703 31.7888C85.8389 31.8131 84.915 31.8176 84.2703 31.5266C83.0464 30.9746 81.9106 30.0345 81.6464 28.6956C81.5429 28.17 81.4857 27.5254 81.4747 26.7623C81.4559 25.435 81.4564 23.9234 81.4764 22.227Z" fill="white"/>
<path d="M66.4271 26.8001C66.3722 26.8114 66.3234 26.8426 66.2892 26.8878C66.2553 26.9329 66.2385 26.9891 66.242 27.0458C66.259 27.2934 66.3143 27.5049 66.4078 27.6797C67.672 30.0405 70.7748 30.083 72.8153 28.8549C73.3167 28.5529 73.6227 29.0276 74.0436 29.4463C74.4839 29.8829 74.1748 30.083 73.8315 30.418C71.6899 32.512 67.8525 32.3043 65.6241 30.4939C64.0809 29.24 63.3302 27.2641 63.4646 25.2476C63.5392 24.1147 63.9913 23.0792 64.5406 22.0784C65.4764 20.368 67.4227 19.5856 69.2734 19.4704C70.9122 19.3683 72.3022 19.8884 73.4436 21.0307C74.8188 22.4054 75.3874 24.1001 75.1495 26.1149C75.0643 26.8412 74.6062 26.7836 73.9718 26.7805C73.8167 26.7805 71.4118 26.7755 66.7571 26.7654C66.6506 26.7654 66.5406 26.777 66.4271 26.8001ZM66.3315 24.8639L72.6511 24.8516C72.6625 24.8516 72.6734 24.8472 72.6815 24.8389C72.6897 24.8306 72.6943 24.8195 72.6943 24.8077V24.7699C72.6936 24.3789 72.6139 23.9916 72.4602 23.6306C72.3062 23.2696 72.0811 22.9418 71.7974 22.6658C71.5139 22.3898 71.1776 22.1711 70.8074 22.0222C70.4374 21.8733 70.0409 21.7971 69.6406 21.7979H69.3302C68.5218 21.7996 67.7474 22.1149 67.1769 22.6745C66.6064 23.2341 66.2869 23.9921 66.2883 24.7819V24.82C66.2883 24.8316 66.2929 24.8427 66.3011 24.8509C66.3092 24.8592 66.3202 24.8639 66.3315 24.8639Z" fill="white"/>
<path d="M112.089 21.5629C112.265 21.6872 112.473 21.5841 112.597 21.4249C113.494 20.2684 114.631 19.6195 116.008 19.4779C117.604 19.3142 118.915 19.9177 119.955 21.1034C120.491 21.714 120.778 22.5025 120.815 23.4689C120.843 24.1951 120.481 24.415 119.826 24.544C119.426 24.6227 118.947 24.6844 118.388 24.729C118.32 24.7344 118.252 24.7158 118.196 24.6759C118.14 24.6359 118.1 24.5776 118.081 24.5105C117.792 23.4294 117.435 22.5394 116.268 22.2331C114.977 21.8964 113.852 22.1583 112.894 23.0185C112.266 23.5816 111.959 24.2978 111.974 25.167C111.983 25.6696 111.983 27.615 111.974 31.0035C111.973 31.4169 111.777 31.6206 111.386 31.6144C111.101 31.6095 110.565 31.5998 109.78 31.5856C109.115 31.5736 109.156 31.0413 109.158 30.5106C109.16 28.7942 109.173 27.1793 109.197 25.666C109.222 24.0906 109.101 21.9935 109.174 20.3513C109.205 19.6735 109.685 19.7585 110.301 19.7115C110.755 19.6771 111.185 19.6776 111.591 19.713C111.667 19.7199 111.739 19.7543 111.794 19.81C111.848 19.8658 111.881 19.9394 111.888 20.0178L111.997 21.4006C111.999 21.4329 112.009 21.4642 112.025 21.4922C112.041 21.5202 112.063 21.5443 112.089 21.5629Z" fill="white"/>
<path d="M147.169 28.556C147.537 27.2809 146.402 26.9761 145.365 26.8169C143.328 26.5031 141.631 26.3909 140.237 25.4371C139.482 24.9216 139.302 24.0921 139.255 23.1323C139.213 22.3135 139.361 21.6842 139.902 21.0701C140.554 20.3311 141.41 19.8666 142.471 19.6766C145.362 19.1565 149.437 19.4203 149.756 23.3248C149.758 23.3496 149.755 23.3745 149.747 23.398C149.739 23.4215 149.727 23.4431 149.71 23.4613C149.694 23.4796 149.674 23.4941 149.652 23.504C149.63 23.514 149.606 23.519 149.581 23.5189H147.517C147.457 23.5189 147.397 23.5023 147.346 23.4708C147.293 23.4393 147.251 23.3941 147.222 23.34C146.841 22.6289 146.559 22.1724 145.708 21.942C144.723 21.6781 142.368 21.5705 142.041 22.8002C141.756 23.8723 142.572 24.3179 143.465 24.497C144.871 24.7805 146.519 24.8791 148.002 25.4038C148.955 25.7402 149.642 26.4273 149.893 27.4659C150.446 29.7676 148.784 31.1838 146.776 31.6735C146.349 31.7777 145.724 31.8505 144.899 31.8921C143.793 31.9466 142.431 31.8966 141.484 31.4446C140.332 30.8957 139.343 29.9935 139.047 28.6789C139 28.4696 139 28.2777 139.046 28.1026C139.065 28.0289 139.107 27.9637 139.167 27.9169C139.226 27.8704 139.3 27.8451 139.376 27.8449H141.279C141.358 27.8449 141.436 27.8694 141.502 27.9155C141.568 27.9616 141.619 28.0268 141.647 28.1026C141.9 28.7729 142.321 29.2112 142.911 29.4174C143.837 29.7388 146.781 29.898 147.169 28.556Z" fill="white"/>
<path d="M101.732 29.6735C101.587 29.7747 101.43 29.9389 101.262 30.1664C100.428 31.2884 99.1782 31.8115 97.7366 31.7798C97.1594 31.7666 96.6585 31.6574 96.2336 31.4521C94.7113 30.7169 93.7738 29.0897 93.7187 27.4068C93.6917 26.6061 93.6864 25.8813 93.7022 25.2323C93.741 23.6857 93.6529 22.1466 93.7231 20.6576C93.7485 20.1224 93.862 19.7357 94.4217 19.6827C94.8834 19.6392 95.3306 19.6412 95.7634 19.6887C96.062 19.7206 96.3396 19.7949 96.4141 20.13C96.4838 20.4373 96.5187 20.6374 96.5187 20.7304C96.5148 22.2963 96.5171 23.9399 96.5262 25.6615C96.5292 26.312 96.532 27.0579 96.765 27.6492C97.1996 28.7521 98.0948 29.2516 99.4499 29.1474C100.871 29.0368 102.142 27.8434 102.156 26.3862C102.172 24.6891 102.161 22.8947 102.123 21.0033C102.114 20.5586 102.162 20.1881 102.266 19.8919C102.317 19.7484 102.43 19.67 102.605 19.6569C102.948 19.6316 103.537 19.67 104.371 19.7721C104.957 19.8449 104.981 20.2952 104.972 20.7744C104.932 23.346 104.936 26.3923 104.987 29.9131C104.992 30.3044 104.985 30.7275 104.965 31.1823C104.961 31.2719 104.923 31.3562 104.86 31.4181C104.796 31.48 104.711 31.5145 104.623 31.5143H102.557C102.467 31.5143 102.38 31.4795 102.313 31.4169C102.246 31.3543 102.205 31.2683 102.198 31.1762L102.092 29.8479C102.089 29.807 102.075 29.7676 102.052 29.7338C102.029 29.7 101.998 29.6728 101.961 29.6551C101.925 29.6374 101.885 29.6298 101.844 29.6331C101.804 29.6362 101.765 29.6504 101.732 29.6735Z" fill="white"/>
<path d="M129.861 28.1407C129.978 28.1811 130.074 28.1123 130.149 27.9344C131.02 25.8683 131.96 23.436 132.97 20.6379C133.094 20.2937 133.34 19.8176 133.757 19.7615C134.549 19.6543 135.24 19.6609 135.831 19.7812C135.873 19.7897 135.913 19.8072 135.947 19.8325C135.982 19.8578 136.011 19.8903 136.033 19.9278C136.054 19.9654 136.067 20.0072 136.072 20.0504C136.076 20.0936 136.071 20.1373 136.058 20.1785C135.862 20.7759 135.572 21.4466 135.188 22.1906C134.906 22.7355 134.621 23.4016 134.333 24.1891C133.33 26.923 131.945 30.2982 130.622 33.7054C130.339 34.4352 130.063 35.1192 129.794 35.7571C129.657 36.0805 129.452 36.2554 129.176 36.2816C128.46 36.3473 127.764 36.3473 127.089 36.2816C127.038 36.2762 126.991 36.2509 126.959 36.2107C126.926 36.1708 126.91 36.1195 126.915 36.0678C126.934 35.8223 127.006 35.5499 127.131 35.2505C127.824 33.5908 128.24 32.5718 128.38 32.1938C128.49 31.8965 128.479 31.5826 128.347 31.252C128.021 30.4362 127.8 29.8807 127.685 29.5856C126.461 26.4601 125.241 23.4689 124.025 20.6121C123.921 20.3665 123.879 20.1674 123.9 20.0147C123.908 19.9576 123.933 19.9046 123.973 19.8634C124.012 19.8222 124.063 19.795 124.119 19.7857C124.398 19.7382 124.692 19.7145 125.003 19.7145C125.794 19.7145 126.309 19.6766 126.715 20.3559C127.004 20.8426 127.34 21.7281 127.573 22.4044C128.278 24.4523 129.015 26.3408 129.782 28.0693C129.789 28.0861 129.8 28.101 129.814 28.1133C129.827 28.1255 129.843 28.1348 129.861 28.1407Z" fill="white"/>
</g>
<defs>
<clipPath id="clip0_82_2916">
<rect width="150" height="43" fill="white"/>
</clipPath>
</defs>
</svg>
