<svg width="16" height="16" viewBox="0 0 16 16" fill="none" xmlns="http://www.w3.org/2000/svg">
<path d="M10.5968 10.9209C10.5689 10.9247 10.5409 10.9267 10.5128 10.9269C10.2129 10.9269 9.60118 11.0218 9.5592 10.713C9.51322 10.3751 10.1669 10.58 10.5048 10.5351C12.6269 10.2462 14.2872 7.89427 14.2872 5.74626C14.2872 3.36736 11.9382 0.798544 9.5592 0.798544C7.1802 0.798544 4.8132 3.36736 4.8132 5.74626C4.83289 6.67878 5.10457 7.5886 5.59942 8.37924C6.09427 9.16989 6.79386 9.81189 7.62401 10.2372C7.93888 10.3671 8.30773 10.2202 8.17878 10.5371C8.04984 10.8539 7.73797 10.7979 7.4241 10.669L7.32414 10.629L6.37154 9.77541L6.02869 10.0823L1.30269 14.8061C1.24625 14.8668 1.17816 14.9154 1.10249 14.9492C1.02681 14.983 0.945112 15.0012 0.862258 15.0027C0.779404 15.0042 0.697099 14.9889 0.620256 14.9579C0.543413 14.9269 0.47361 14.8807 0.415014 14.8221C0.356418 14.7635 0.310231 14.6937 0.279212 14.6169C0.248193 14.5401 0.232978 14.4578 0.234476 14.3749C0.235973 14.2921 0.254152 14.2104 0.287927 14.1347C0.321702 14.059 0.370381 13.9909 0.431056 13.9345L5.16006 9.20867C4.65594 8.07445 4.41502 6.84087 4.45535 5.60033C4.45435 2.54174 7.68999 0.475693 9.5592 0.475693C10.9082 0.644243 12.154 1.2846 13.0762 2.28342C13.9984 3.28224 14.5375 4.5751 14.5981 5.93318C14.5981 8.69491 13.3266 10.5501 10.5998 10.9209H10.5968Z" fill="black" stroke="black" stroke-width="0.39975"/>
<path d="M9.51298 11.5617C8.36969 11.5617 7.25208 11.2227 6.30148 10.5875C5.35087 9.95235 4.60996 9.04959 4.17244 7.99337C3.73493 6.93715 3.62045 5.77492 3.8435 4.65364C4.06654 3.53237 4.61708 2.50241 5.42551 1.69402C6.23394 0.885621 7.26393 0.335097 8.38525 0.112062C9.50657 -0.110974 10.6688 0.00349636 11.7251 0.440996C12.7814 0.878496 13.6842 1.61938 14.3193 2.56995C14.9545 3.52052 15.2935 4.63809 15.2935 5.78133C15.2917 7.3138 14.6821 8.78298 13.5984 9.8666C12.5147 10.9502 11.0455 11.5598 9.51298 11.5617ZM9.51298 1.57727C8.68146 1.57747 7.86868 1.82422 7.17741 2.28634C6.48614 2.74845 5.94743 3.40516 5.6294 4.17343C5.31138 4.9417 5.22832 5.78701 5.39074 6.60248C5.55315 7.41795 5.95374 8.16695 6.54185 8.75476C7.12996 9.34257 7.87918 9.74279 8.69476 9.90481C9.51033 10.0668 10.3556 9.98337 11.1238 9.665C11.8919 9.34662 12.5484 8.80762 13.0102 8.11615C13.472 7.42469 13.7184 6.61182 13.7182 5.78033C13.7166 4.66575 13.273 3.5973 12.4846 2.80936C11.6963 2.02142 10.6276 1.57833 9.51298 1.57727Z" fill="black"/>
</svg>
