<svg width="22" height="19" viewBox="0 0 22 19" fill="none" xmlns="http://www.w3.org/2000/svg">
<g opacity="0.4">
<path d="M4.90499 16.625C4.41442 16.625 3.99461 16.4701 3.64556 16.1603C3.29651 15.8505 3.12169 15.4776 3.12109 15.0417V3.95833C3.12109 3.52292 3.29592 3.15031 3.64556 2.8405C3.99521 2.53069 4.41502 2.37553 4.90499 2.375H17.3923C17.8829 2.375 18.303 2.53017 18.6526 2.8405C19.0023 3.15083 19.1768 3.52344 19.1762 3.95833V15.0417C19.1762 15.4771 19.0017 15.85 18.6526 16.1603C18.3036 16.4706 17.8835 16.6255 17.3923 16.625H4.90499ZM4.90499 15.0417H17.3923V3.95833H4.90499V15.0417ZM5.79695 13.4583H16.5003L13.1555 9.5L10.4797 12.6667L8.4728 10.2917L5.79695 13.4583Z" fill="black"/>
</g>
</svg>
