<svg width="24" height="24" viewBox="0 0 24 24" fill="none" xmlns="http://www.w3.org/2000/svg">
<path d="M16.0249 17.2733L12.5132 13.7616C12.3849 13.6333 12.2332 13.61 12.1515 13.61C12.0699 13.61 11.9182 13.6333 11.7899 13.7616L8.26652 17.285C7.86986 17.6816 7.25152 18.3233 5.18652 18.3233L9.51486 22.64C10.1711 23.2954 11.0607 23.6635 11.9882 23.6635C12.9157 23.6635 13.8053 23.2954 14.4615 22.64L18.8015 18.3116C17.7399 18.3116 16.8532 18.1016 16.0249 17.2733ZM8.26652 6.71495L11.7899 10.2383C11.8832 10.3316 12.0232 10.39 12.1515 10.39C12.2799 10.39 12.4199 10.3316 12.5132 10.2383L16.0015 6.74995C16.8299 5.88662 17.7749 5.68829 18.8365 5.68829L14.4965 1.35995C13.8403 0.704516 12.9507 0.336365 12.0232 0.336365C11.0957 0.336365 10.2061 0.704516 9.54986 1.35995L5.22152 5.67662C7.27486 5.67662 7.90486 6.35329 8.26652 6.71495Z" fill="#32BCAD"/>
<path d="M22.6279 9.4917L20.0029 6.85503H18.5329C17.9029 6.85503 17.2729 7.1117 16.8412 7.5667L13.3412 11.0667C13.0145 11.3934 12.5829 11.5567 12.1512 11.5567C11.7067 11.5504 11.2812 11.3752 10.9612 11.0667L7.43786 7.5317C6.99452 7.08836 6.38786 6.8317 5.74619 6.8317H4.03119L1.35952 9.51503C0.704089 10.1713 0.335938 11.0609 0.335938 11.9884C0.335938 12.9159 0.704089 13.8054 1.35952 14.4617L4.03119 17.145H5.75786C6.38786 17.145 6.99452 16.8884 7.44952 16.445L10.9729 12.9217C11.2995 12.595 11.7312 12.4317 12.1629 12.4317C12.5945 12.4317 13.0262 12.595 13.3529 12.9217L16.8645 16.4334C17.3079 16.8767 17.9145 17.1334 18.5562 17.1334H20.0262L22.6512 14.4967C23.3099 13.8289 23.6773 12.9274 23.673 11.9894C23.6686 11.0514 23.2928 10.1533 22.6279 9.4917Z" fill="#32BCAD"/>
</svg>
