<svg width="18" height="15" viewBox="0 0 18 15" fill="none" xmlns="http://www.w3.org/2000/svg" preserveAspectRatio="none">
<path d="M7.8603 1.31941L7.26636 0.299805C3.15449 3.38412 0.870117 7.13118 0.870117 10.2155C0.870117 13.1978 2.83468 14.5998 4.50227 14.5998C6.60389 14.5998 8.08873 12.6116 8.08873 10.5214C8.08873 8.76255 7.08361 7.25863 5.73583 6.69784C5.34749 6.5449 4.98199 6.41745 4.98199 5.67824C4.98199 4.7351 5.59877 3.33314 7.8603 1.31941ZM16.9293 1.31941L16.3353 0.299805C12.2691 3.38412 9.93907 7.13118 9.93907 10.2155C9.93907 13.1978 11.9493 14.5998 13.6169 14.5998C15.7414 14.5998 17.2491 12.6116 17.2491 10.5214C17.2491 8.76255 16.2211 7.25863 14.8276 6.69784C14.4393 6.5449 14.0966 6.41745 14.0966 5.67824C14.0966 4.7351 14.7363 3.33314 16.9293 1.31941Z" fill="black"/>
</svg>
