<svg width="18" height="19" viewBox="0 0 18 19" fill="none" xmlns="http://www.w3.org/2000/svg">
<path d="M12.75 16.5645C12.125 16.5645 11.5938 16.3458 11.1562 15.9083C10.7188 15.4708 10.5 14.9395 10.5 14.3145C10.5 14.2395 10.5188 14.0645 10.5562 13.7895L5.2875 10.7145C5.0875 10.902 4.85625 11.049 4.59375 11.1555C4.33125 11.262 4.05 11.315 3.75 11.3145C3.125 11.3145 2.59375 11.0958 2.15625 10.6583C1.71875 10.2208 1.5 9.68951 1.5 9.06451C1.5 8.43951 1.71875 7.90826 2.15625 7.47076C2.59375 7.03326 3.125 6.81451 3.75 6.81451C4.05 6.81451 4.33125 6.86776 4.59375 6.97426C4.85625 7.08076 5.0875 7.22751 5.2875 7.41451L10.5562 4.33951C10.5312 4.25201 10.5157 4.16776 10.5097 4.08676C10.5037 4.00576 10.5005 3.91501 10.5 3.81451C10.5 3.18951 10.7188 2.65826 11.1562 2.22076C11.5938 1.78326 12.125 1.56451 12.75 1.56451C13.375 1.56451 13.9062 1.78326 14.3438 2.22076C14.7812 2.65826 15 3.18951 15 3.81451C15 4.43951 14.7812 4.97076 14.3438 5.40826C13.9062 5.84576 13.375 6.06451 12.75 6.06451C12.45 6.06451 12.1687 6.01126 11.9062 5.90476C11.6438 5.79826 11.4125 5.65151 11.2125 5.46451L5.94375 8.53951C5.96875 8.62701 5.9845 8.71151 5.991 8.79301C5.9975 8.87451 6.0005 8.96501 6 9.06451C5.9995 9.16401 5.9965 9.25476 5.991 9.33676C5.9855 9.41876 5.96975 9.50301 5.94375 9.58951L11.2125 12.6645C11.4125 12.477 11.6438 12.3303 11.9062 12.2243C12.1687 12.1183 12.45 12.065 12.75 12.0645C13.375 12.0645 13.9062 12.2833 14.3438 12.7208C14.7812 13.1583 15 13.6895 15 14.3145C15 14.9395 14.7812 15.4708 14.3438 15.9083C13.9062 16.3458 13.375 16.5645 12.75 16.5645Z" fill="black"/>
</svg>
