<svg width="23" height="18" viewBox="0 0 23 18" fill="none" xmlns="http://www.w3.org/2000/svg">
<path d="M16.2546 17.0645C17.3779 17.0645 18.2885 16.1691 18.2885 15.0645C18.2885 13.9599 17.3779 13.0645 16.2546 13.0645C15.1313 13.0645 14.2207 13.9599 14.2207 15.0645C14.2207 16.1691 15.1313 17.0645 16.2546 17.0645Z" stroke="black" stroke-width="1.5" stroke-linecap="round" stroke-linejoin="round"/>
<path d="M6.08468 17.0645C7.20797 17.0645 8.11858 16.1691 8.11858 15.0645C8.11858 13.9599 7.20797 13.0645 6.08468 13.0645C4.96139 13.0645 4.05078 13.9599 4.05078 15.0645C4.05078 16.1691 4.96139 17.0645 6.08468 17.0645Z" stroke="black" stroke-width="1.5" stroke-linecap="round" stroke-linejoin="round"/>
<path d="M10.1523 14.0645H14.2201M12.6947 4.06451H13.6537C14.9859 4.06451 15.653 4.06451 16.2174 4.37951C16.7829 4.69351 17.1591 5.27451 17.9127 6.43551C18.4415 7.24951 18.9947 7.84151 19.7747 8.36651C20.5598 8.89651 20.934 9.15551 21.1405 9.57051C21.3388 9.96851 21.3388 10.4395 21.3388 11.3815C21.3388 12.6245 21.3388 13.2455 20.9839 13.6405L20.9371 13.6895C20.5639 14.0645 19.9751 14.0645 18.7995 14.0645H18.2879" stroke="black" stroke-width="1.5" stroke-linecap="round" stroke-linejoin="round"/>
<path d="M12.1864 4.06451L13.1973 6.55051C13.6925 7.76751 13.9397 8.37651 14.4573 8.72051C14.9739 9.06451 15.64 9.06451 16.9742 9.06451H20.322M12.1864 4.06451C12.1864 2.64951 12.1864 1.94251 11.7593 1.50451C11.3322 1.06451 10.6437 1.06451 9.2678 1.06451H3.91864C2.54271 1.06451 1.85424 1.06551 1.42712 1.50451C1 1.94351 1 2.65051 1 4.06451V11.0645C1 12.4795 1 13.1865 1.42712 13.6245C1.85424 14.0645 2.54271 14.0645 3.91864 14.0645M12.1864 4.06451V14.0645H7.80949" stroke="black" stroke-width="1.5" stroke-linecap="round" stroke-linejoin="round"/>
</svg>
