<svg width="18" height="17" viewBox="0 0 18 17" fill="none" xmlns="http://www.w3.org/2000/svg">
<path d="M16.652 7.58287L13.3804 10.4381L14.3604 14.6891C14.4123 14.9114 14.3975 15.1439 14.3179 15.3578C14.2383 15.5717 14.0974 15.7573 13.9128 15.8916C13.7283 16.0258 13.5083 16.1026 13.2803 16.1125C13.0523 16.1224 12.8264 16.0648 12.631 15.947L8.92335 13.6982L5.22368 15.947C5.02823 16.0648 4.8024 16.1224 4.57441 16.1125C4.34642 16.1026 4.1264 16.0258 3.94185 15.8916C3.75731 15.7573 3.61642 15.5717 3.53682 15.3578C3.45721 15.1439 3.44241 14.9114 3.49427 14.6891L4.47287 10.4425L1.20048 7.58287C1.0274 7.4336 0.902243 7.23654 0.840708 7.01642C0.779173 6.7963 0.783997 6.56291 0.854576 6.34552C0.925154 6.12813 1.05834 5.93642 1.23744 5.79442C1.41655 5.65243 1.63358 5.56647 1.86134 5.54733L6.17471 5.17374L7.85843 1.15779C7.94635 0.947062 8.09466 0.767063 8.28467 0.640455C8.47469 0.513846 8.69792 0.446289 8.92625 0.446289C9.15458 0.446289 9.37781 0.513846 9.56783 0.640455C9.75784 0.767063 9.90615 0.947062 9.99408 1.15779L11.6829 5.17374L15.9948 5.54733C16.2225 5.56647 16.4396 5.65243 16.6187 5.79442C16.7978 5.93642 16.931 6.12813 17.0016 6.34552C17.0721 6.56291 17.077 6.7963 17.0154 7.01642C16.9539 7.23654 16.8287 7.4336 16.6556 7.58287H16.652Z" fill="#363842"/>
</svg>
