<svg width="19" height="19" viewBox="0 0 19 19" fill="none" xmlns="http://www.w3.org/2000/svg">
<path d="M10.9963 2.24108L12.5163 5.36572C12.7246 5.79459 13.2812 6.22082 13.7533 6.29923L16.5612 6.80266C18.3592 7.12107 18.7586 8.42991 17.4565 9.71066L15.2387 11.8798C14.8684 12.2433 14.6484 12.9624 14.7629 13.4699L15.3575 16.1916C15.8248 18.3404 14.679 19.1608 12.801 18.0189L10.1774 16.4236C9.69966 16.1321 8.91662 16.1298 8.43905 16.404L5.78183 17.9328C3.87973 19.0255 2.75003 18.1813 3.26677 16.0456L3.92678 13.3431C4.05003 12.8379 3.85595 12.1138 3.49238 11.7435L1.31094 9.52166C0.0383511 8.21536 0.467147 6.91663 2.26883 6.63649L5.08194 6.20107C5.5569 6.12367 6.12369 5.72171 6.33772 5.29373L7.92946 2.19877C8.79821 0.531844 10.1758 0.550083 10.9963 2.24108Z" fill="#FFB550"/>
</svg>
