<svg width="14" height="15" viewBox="0 0 14 15" fill="none" xmlns="http://www.w3.org/2000/svg">
<path d="M13.4922 6.2339C13.4297 6.2339 13.3633 6.2339 13.293 6.2339C13.2227 6.2339 13.1562 6.22609 13.0938 6.21047C12.9375 6.19484 12.7812 6.17531 12.625 6.15187C12.4688 6.12844 12.3125 6.10109 12.1562 6.06984C11.7812 5.99172 11.4141 5.87453 11.0547 5.71828C10.6953 5.56203 10.3516 5.37453 10.0234 5.15578C10.0078 5.14015 9.98438 5.12453 9.95312 5.1089C9.92188 5.09328 9.89062 5.07765 9.85938 5.06203C9.85938 5.06203 9.85938 5.06593 9.85938 5.07375C9.85938 5.08156 9.85938 5.09328 9.85938 5.1089C9.85938 5.7339 9.85938 6.36281 9.85938 6.99562C9.85938 7.62843 9.85938 8.25734 9.85938 8.88234C9.85938 9.14797 9.85938 9.4175 9.85938 9.69093C9.85938 9.96437 9.85938 10.2339 9.85938 10.4995C9.85938 10.6402 9.84766 10.7847 9.82422 10.9331C9.80078 11.0816 9.77344 11.2339 9.74219 11.3902C9.63281 11.812 9.47656 12.2066 9.27344 12.5737C9.07031 12.9409 8.82031 13.2808 8.52344 13.5933C8.27344 13.8589 7.99609 14.0855 7.69141 14.273C7.38672 14.4605 7.07031 14.6167 6.74219 14.7417C6.57031 14.8042 6.39844 14.8511 6.22656 14.8823C6.05469 14.9136 5.88281 14.9448 5.71094 14.9761C5.07031 15.0386 4.45703 14.9878 3.87109 14.8237C3.28516 14.6597 2.74219 14.3745 2.24219 13.9683C1.85156 13.6558 1.52344 13.2964 1.25781 12.8902C0.992187 12.4839 0.789062 12.0464 0.648438 11.5777C0.601562 11.3589 0.5625 11.1441 0.53125 10.9331C0.5 10.7222 0.492188 10.5152 0.507812 10.312C0.507812 10.2183 0.507812 10.1245 0.507812 10.0308C0.507812 9.93703 0.515625 9.84328 0.53125 9.74953C0.546875 9.57765 0.570312 9.41359 0.601562 9.25734C0.632812 9.10109 0.679687 8.94484 0.742188 8.78859C0.882812 8.36672 1.07422 7.9839 1.31641 7.64015C1.55859 7.2964 1.84375 6.9839 2.17188 6.70265C2.42188 6.4839 2.69531 6.2964 2.99219 6.14015C3.28906 5.9839 3.59375 5.86672 3.90625 5.78859C4.14062 5.71047 4.375 5.65578 4.60938 5.62453C4.84375 5.59328 5.07812 5.58547 5.3125 5.60109C5.42188 5.60109 5.52734 5.6089 5.62891 5.62453C5.73047 5.64015 5.82812 5.65578 5.92188 5.6714C5.9375 5.6714 5.94531 5.67531 5.94531 5.68312C5.94531 5.69094 5.94531 5.70265 5.94531 5.71828C5.94531 5.93703 5.94531 6.16359 5.94531 6.39797C5.94531 6.63234 5.94531 6.86672 5.94531 7.10109C5.94531 7.31984 5.94141 7.53468 5.93359 7.74562C5.92578 7.95656 5.92188 8.1714 5.92188 8.39015C5.92188 8.40578 5.92188 8.4175 5.92188 8.42531C5.92188 8.43312 5.92188 8.43703 5.92188 8.43703C5.89062 8.43703 5.86328 8.43312 5.83984 8.42531C5.81641 8.4175 5.78906 8.41359 5.75781 8.41359C5.52344 8.35109 5.29297 8.32375 5.06641 8.33156C4.83984 8.33937 4.61719 8.39015 4.39844 8.4839C4.14844 8.59328 3.92969 8.73781 3.74219 8.9175C3.55469 9.09718 3.40625 9.30422 3.29688 9.53859C3.25 9.63234 3.21094 9.72218 3.17969 9.80812C3.14844 9.89406 3.125 9.9839 3.10938 10.0777C3.10938 10.1245 3.10938 10.1714 3.10938 10.2183C3.10938 10.2652 3.10938 10.3042 3.10938 10.3355C3.10938 10.4136 3.10938 10.4878 3.10938 10.5581C3.10938 10.6284 3.10938 10.7027 3.10938 10.7808C3.125 10.8589 3.14453 10.9409 3.16797 11.0269C3.19141 11.1128 3.21875 11.1948 3.25 11.273C3.39062 11.5855 3.57812 11.8472 3.8125 12.0581C4.04688 12.2691 4.32812 12.4214 4.65625 12.5152C4.76562 12.5464 4.86719 12.5659 4.96094 12.5737C5.05469 12.5816 5.15625 12.5855 5.26562 12.5855C5.35938 12.5698 5.45703 12.5581 5.55859 12.5503C5.66016 12.5425 5.75 12.523 5.82812 12.4917C6.09375 12.398 6.32812 12.273 6.53125 12.1167C6.73438 11.9605 6.90625 11.7652 7.04688 11.5308C7.0625 11.4839 7.08203 11.437 7.10547 11.3902C7.12891 11.3433 7.15625 11.2964 7.1875 11.2495C7.23438 11.1714 7.26172 11.0855 7.26953 10.9917C7.27734 10.898 7.28125 10.8042 7.28125 10.7105C7.3125 10.1792 7.32422 9.64797 7.31641 9.11672C7.30859 8.58547 7.3125 8.05422 7.32812 7.52297C7.32812 6.46047 7.32812 5.39406 7.32812 4.32375C7.32812 3.25343 7.32812 2.18703 7.32812 1.12453C7.32812 0.937029 7.32812 0.757341 7.32812 0.585466C7.32812 0.41359 7.32812 0.241716 7.32812 0.0698414C7.32812 0.0542154 7.32812 0.0424976 7.32812 0.0346851C7.32812 0.0268717 7.32812 0.0151539 7.32812 -0.000471115C7.35938 -0.000471115 7.39062 -0.000471115 7.42188 -0.000471115C7.45313 -0.000471115 7.48438 -0.000471115 7.51562 -0.000471115C7.75 -0.000471115 7.98438 -0.000471115 8.21875 -0.000471115C8.45312 -0.000471115 8.6875 -0.000471115 8.92188 -0.000471115C8.9375 -0.000471115 8.94922 -0.000471115 8.95703 -0.000471115C8.96484 -0.000471115 8.96875 -0.000471115 8.96875 -0.000471115C9.10938 -0.000471115 9.24609 -0.000471115 9.37891 -0.000471115C9.51172 -0.000471115 9.64062 -0.000471115 9.76562 -0.000471115C9.76562 0.0464039 9.76953 0.0971851 9.77734 0.151873C9.78516 0.206559 9.78906 0.265153 9.78906 0.327654C9.82031 0.530779 9.86328 0.73781 9.91797 0.948748C9.97266 1.15969 10.0469 1.36672 10.1406 1.56984C10.2969 1.91359 10.4961 2.21828 10.7383 2.4839C10.9805 2.74953 11.2734 2.97609 11.6172 3.16359C11.8672 3.30422 12.125 3.41359 12.3906 3.49172C12.6562 3.56984 12.9219 3.63234 13.1875 3.67922C13.25 3.69484 13.3047 3.70656 13.3516 3.71437C13.3984 3.72219 13.4453 3.72609 13.4922 3.72609C13.4922 4.14797 13.4922 4.56594 13.4922 4.98C13.4922 5.39406 13.4922 5.81203 13.4922 6.2339Z" fill="black"/>
</svg>
