<svg width="16" height="11" viewBox="0 0 16 11" fill="none" xmlns="http://www.w3.org/2000/svg">
<path d="M10.5078 5.33594L6.45312 3.13281V7.51562L10.5078 5.33594ZM13.25 0.15625C13.3906 0.171875 13.6055 0.207031 13.8945 0.261719C14.1836 0.316406 14.4688 0.5 14.75 0.8125C14.75 0.8125 14.832 0.9375 14.9961 1.1875C15.1602 1.4375 15.2812 1.83594 15.3594 2.38281C15.4375 3.00781 15.4805 3.58594 15.4883 4.11719C15.4961 4.64844 15.5 4.91406 15.5 4.91406V6.08594C15.5 6.08594 15.4961 6.35156 15.4883 6.88281C15.4805 7.41406 15.4375 7.99219 15.3594 8.61719C15.2812 9.16406 15.1602 9.5625 14.9961 9.8125C14.832 10.0625 14.75 10.1875 14.75 10.1875C14.4688 10.4844 14.1836 10.6602 13.8945 10.7148C13.6055 10.7695 13.3906 10.8125 13.25 10.8438C13.25 10.8438 12.7695 10.8711 11.8086 10.9258C10.8477 10.9805 9.57812 11.0078 8 11.0078C6.04688 10.9922 4.70703 10.9609 3.98047 10.9141C3.25391 10.8672 2.89062 10.8438 2.89062 10.8438C2.73438 10.8125 2.49219 10.7695 2.16406 10.7148C1.83594 10.6602 1.53125 10.4844 1.25 10.1875C1.25 10.1875 1.16797 10.0625 1.00391 9.8125C0.839844 9.5625 0.71875 9.16406 0.640625 8.61719C0.5625 7.99219 0.519531 7.41406 0.511719 6.88281C0.503906 6.35156 0.5 6.08594 0.5 6.08594V4.91406C0.5 4.91406 0.503906 4.64844 0.511719 4.11719C0.519531 3.58594 0.5625 3.00781 0.640625 2.38281C0.71875 1.83594 0.839844 1.4375 1.00391 1.1875C1.16797 0.9375 1.25 0.8125 1.25 0.8125C1.53125 0.5 1.81641 0.316406 2.10547 0.261719C2.39453 0.207031 2.60938 0.171875 2.75 0.15625C2.75 0.15625 3.23047 0.128906 4.19141 0.0742188C5.15234 0.0195312 6.42188 -0.0078125 8 -0.0078125C9.57812 -0.0078125 10.8477 0.0195312 11.8086 0.0742188C12.7695 0.128906 13.25 0.15625 13.25 0.15625Z" fill="black"/>
</svg>
